<?xml version="1.0" encoding="UTF-8"?>
<svg width="18px" height="22px" viewBox="0 0 18 22" version="1.1" xmlns="http://www.w3.org/2000/svg" xmlns:xlink="http://www.w3.org/1999/xlink">
    <!-- Generator: Sketch 57.1 (83088) - https://sketch.com -->
    <title>Shape</title>
    <desc>Created with Sketch.</desc>
    <g id="UI---Website" stroke="none" stroke-width="1" fill="none" fill-rule="evenodd">
        <g id="Venue" transform="translate(-711.000000, -935.000000)" fill="#000000" fill-rule="nonzero">
            <g id="Group-2" transform="translate(380.000000, 845.000000)">
                <path d="M339.84331,90.6296525 C340.300914,90.2247838 340.892338,90.0038903 341.50331,90.0096525 C342.228991,90.0125293 342.915055,90.327872 343.38927,90.8695638 L343.50331,91.0096525 C344.245978,90.999083 344.954893,91.3192871 345.437945,91.8834924 C345.880743,92.4006805 346.091722,93.0738041 346.027639,93.7463598 L346.00331,93.9296525 C345.870055,94.5948249 345.489567,95.1562028 344.97032,95.5276693 L344.870086,97.009 L346.57331,97.0096525 C347.915362,97.0096525 349.00331,98.0976005 349.00331,99.4396525 L349.00331,102.579652 C349.00331,103.921704 347.915362,105.009652 346.57331,105.009652 L344.338086,105.009 L344.06331,109.149652 C343.99089,110.183981 343.140011,110.991447 342.10331,111.009652 L334.90331,111.009652 C333.851182,111.012233 332.976956,110.199203 332.90331,109.149652 L332.086086,96.316 C331.146022,95.5334301 330.768274,94.2599542 331.14331,93.0896525 C331.458759,92.0989231 332.264703,91.3421686 333.27331,91.0896525 C334.017666,90.8982477 334.80738,91.005936 335.47331,91.3896525 C335.926461,90.6773965 336.658733,90.1890269 337.490437,90.0443827 C338.322141,89.8997385 339.176298,90.1122074 339.84331,90.6296525 Z M343.128086,109.009 L333.918086,109.009 L333.92331,109.089652 C333.965107,109.610474 334.400816,110.011327 334.92331,110.009652 L342.12331,110.009652 C342.645804,110.011327 343.081513,109.610474 343.12331,109.089652 L343.128086,109.009 Z M344.00331,96.0096525 L338.80331,96.0096525 C337.81147,96.0151173 337.008775,96.8178123 337.00331,97.8096525 L337.00331,100.509652 C337.00331,101.289349 336.408422,101.930101 335.64777,102.002786 L335.50331,102.009652 C334.674883,102.009652 334.00331,101.33808 334.00331,100.509652 L334.00331,97.0096525 L333.895358,97.0076016 L333.895358,97.0076016 L333.870086,97.006 L333.846528,97.005184 L333.846528,97.005184 L333.820086,97.003 L333.787824,97.001688 L333.787824,97.001688 L333.807086,97.002 L333.690369,96.9927862 L333.690369,96.9927862 C333.647148,96.9883942 333.604116,96.9828881 333.561261,96.976459 C333.521953,96.9706805 333.482102,96.9640001 333.442391,96.9565397 C333.415534,96.9510327 333.388961,96.9455696 333.362474,96.9397493 C333.34696,96.9370898 333.331667,96.933674 333.316399,96.9301415 L333.182214,96.894239 L333.168244,96.8902111 L333.168244,96.8902111 L333.103086,96.872 L333.851086,108.009 L343.196086,108.009 L344.00331,96.0096525 Z M346.57331,98.0096525 L344.804086,98.009 L344.405086,104.009 L346.57331,104.009652 C347.363077,104.009652 348.00331,103.36942 348.00331,102.579652 L348.00331,99.4396525 C348.00331,98.6498853 347.363077,98.0096525 346.57331,98.0096525 Z M341.572007,90.9888541 C341.068814,90.9629983 340.584453,91.1833422 340.27331,91.5796525 L339.91331,92.0896525 L339.50331,91.6196525 C339.111663,91.2139491 338.566947,90.9924312 338.00331,91.0096525 C337.170024,91.011111 336.424959,91.5290704 336.13331,92.3096525 L335.88331,93.0096525 L335.33331,92.5096525 C334.83475,92.067187 334.148519,91.9021914 333.50331,92.0696525 C332.755258,92.2633393 332.185704,92.8706237 332.040333,93.629547 C331.905345,94.3342614 332.158534,95.05264 332.694623,95.5170989 L332.87331,95.6496525 C333.318762,95.96875 333.872562,96.0982097 334.41331,96.0096525 L335.00331,95.8596525 L335.00331,100.509652 C335.00331,100.785795 335.227168,101.009652 335.50331,101.009652 C335.779453,101.009652 336.00331,100.785795 336.00331,100.509652 L336.00331,97.8096525 C336.008796,96.265533 337.259191,95.0151379 338.80331,95.0096525 L343.38331,95.0096525 C344.152256,95.0428915 344.834605,94.5205996 345.00331,93.7696525 C345.079772,93.3341661 344.958875,92.8872135 344.67331,92.5496525 C344.331534,92.1577111 343.820596,91.9563198 343.30331,92.0096525 L342.97331,92.0096525 L342.80331,91.7096525 C342.534426,91.2835385 342.0752,91.0147099 341.572007,90.9888541 Z M333.807086,97.002 L333.820086,97.003 L333.870086,97.006 L334.00331,97.0096525 L333.807086,97.002 Z M333.10331,96.8696525 L333.09331,96.8696525 L333.103086,96.872 L333.10331,96.8696525 Z" id="Shape"></path>
            </g>
        </g>
    </g>
</svg>