<?xml version="1.0" encoding="UTF-8"?>
<svg width="10px" height="11px" viewBox="0 0 10 11" version="1.1" xmlns="http://www.w3.org/2000/svg" xmlns:xlink="http://www.w3.org/1999/xlink">
    <!-- Generator: Sketch 52.6 (67491) - http://www.bohemiancoding.com/sketch -->
    <title>Shape Copy</title>
    <desc>Created with Sketch.</desc>
    <g id="Symbols" stroke="none" stroke-width="1" fill="none" fill-rule="evenodd">
        <g id="Event-/-Answer-/-All" transform="translate(-99.000000, -18.000000)" fill="#EE4949">
            <g id="Can't" transform="translate(57.000000, 14.000000)">
                <path d="M51.6258178,14.6279746 C51.1269081,15.1240085 50.3184405,15.1240085 49.8205946,14.6279746 L47.0005319,11.423321 L44.1804691,14.626917 C43.6815595,15.1229508 42.8730919,15.1229508 42.375246,14.626917 C41.8763364,14.1308831 41.8763364,13.3270756 42.375246,12.8320994 L45.3091325,9.50052882 L42.3741822,6.16684294 C41.8752726,5.6708091 41.8752726,4.86805923 42.3741822,4.37202538 C42.8730919,3.87599154 43.6804957,3.87599154 44.1794054,4.37202538 L47.0005319,7.57773665 L49.8205946,4.37202538 C50.3195043,3.87599154 51.1269081,3.87599154 51.6258178,4.37202538 C52.1247274,4.86805923 52.1247274,5.67186674 51.6258178,6.16684294 L48.6919313,9.50052882 L51.6258178,12.8320994 C52.1247274,13.3281333 52.1247274,14.1319408 51.6258178,14.6279746 Z" id="Shape-Copy"></path>
            </g>
        </g>
    </g>
</svg>