<?xml version="1.0" encoding="UTF-8"?>
<svg width="14px" height="31px" viewBox="0 0 14 31" version="1.1" xmlns="http://www.w3.org/2000/svg" xmlns:xlink="http://www.w3.org/1999/xlink">
    <!-- Generator: Sketch 57.1 (83088) - https://sketch.com -->
    <title>noun_Fork &amp; knife_2463769</title>
    <desc>Created with Sketch.</desc>
    <g id="UI---Website" stroke="none" stroke-width="1" fill="none" fill-rule="evenodd">
        <g id="Venue" transform="translate(-1025.000000, -931.000000)" fill="#000000" fill-rule="nonzero">
            <g id="Group-2" transform="translate(380.000000, 845.000000)">
                <g id="noun_Fork-&amp;-knife_2463769" transform="translate(645.000000, 86.000000)">
                    <path d="M9.46166667,0.381420712 C9.24529442,0.376431514 9.05959024,0.538005736 9.03,0.757115385 L9.03,29.0744231 C9.03275724,29.9098659 9.68290599,30.5927602 10.5,30.6184615 L10.5408333,30.6184615 C11.3568626,30.6184615 12.0192873,29.9441498 12.0225,29.1101923 L12.0225,16.1557692 C13.1698132,15.9453078 13.9891434,14.9018173 13.9416667,13.7115385 L13.9416667,5.08519231 C13.9650873,3.85218122 13.5045661,2.66089834 12.6628699,1.77718242 C11.8211738,0.893466488 10.6683542,0.390866192 9.46166667,0.381420712 Z M13.09,13.7115385 C13.1240291,14.1455041 12.979969,14.5743913 12.6923146,14.8955041 C12.4046602,15.2166169 11.9993133,15.4010406 11.5733333,15.4046154 C11.3617869,15.4006657 11.1833631,15.5647764 11.165,15.7801923 L11.165,29.1161538 C11.1865711,29.3104932 11.1273106,29.5051598 11.0016667,29.6526923 C10.8867565,29.7938659 10.7145965,29.8730406 10.535,29.8673077 C10.3432414,29.8553313 10.1645447,29.7639894 10.0401528,29.6143635 C9.91576093,29.4647376 9.85642272,29.2697571 9.87583333,29.0744231 L9.87583333,1.15057692 C11.8008333,1.33538462 13.0783333,2.93903846 13.0783333,5.08519231 L13.0783333,13.7115385 L13.09,13.7115385 Z" id="Shape"></path>
                    <path d="M7.10503938,8.07788462 L7.10503938,6.73057692 L7.10503938,6.73057692 L6.95916667,1.46057692 C6.96650228,1.15891444 6.85513111,0.866850875 6.65,0.649807692 C6.46946577,0.470160811 6.22518183,0.373312736 5.97333333,0.381538462 C5.70322887,0.395129036 5.45009917,0.52021613 5.27194085,0.728140011 C5.09378253,0.936063892 5.00586557,1.20900339 5.02833333,1.48442308 L4.935,6.21192308 C4.935,6.33711538 4.90583333,6.40269231 4.84166667,6.40269231 C4.7775,6.40269231 4.74833333,6.33711538 4.74833333,6.21192308 L4.74833333,6.21192308 L4.5675,1.48442308 C4.58831233,1.20938651 4.4998108,0.937380786 4.32198601,0.729846156 C4.14416122,0.522311525 3.89201436,0.396755491 3.6225,0.381538462 C3.3613478,0.361826429 3.10443036,0.457304239 2.91666667,0.643846154 C2.71153556,0.860889337 2.60016439,1.1529529 2.6075,1.45461538 L2.42083333,6.22384615 L2.42083333,6.22384615 C2.42083333,6.34903846 2.39166667,6.41461538 2.3275,6.41461538 C2.26333333,6.41461538 2.23416667,6.34903846 2.23416667,6.21788462 L2.17,1.49038462 C2.19246526,1.21436431 2.10471365,0.940795774 1.92671484,0.731935145 C1.74871603,0.523074516 1.49561137,0.396688369 1.225,0.381538462 C0.972918566,0.371906532 0.728111645,0.468961947 0.548333333,0.649807692 C0.343202223,0.866850875 0.231831052,1.15891444 0.239166667,1.46057692 L0.0583333333,6.71865385 L0.0583333333,8.07788462 C0.0603220718,9.51016205 0.884765945,10.8078499 2.16416667,11.3925 L1.995,28.9432692 C1.995,29.8421127 2.70798654,30.5707692 3.5875,30.5707692 C4.46701346,30.5707692 5.18,29.8421127 5.18,28.9432692 L4.9875,11.4044231 C6.27942265,10.8265095 7.11163507,9.51912502 7.10503938,8.07788462 Z M4.54416667,10.7963462 C4.39243957,10.8482489 4.28793813,10.9906464 4.28166667,11.1540385 L4.445,28.9432692 C4.445,29.4272618 4.06108417,29.8196154 3.5875,29.8196154 C3.11391583,29.8196154 2.73,29.4272618 2.73,28.9432692 L2.91666667,11.1361538 C2.89811048,10.9680751 2.78342183,10.827424 2.625,10.7784615 C1.49689214,10.3729561 0.734036259,9.29384523 0.711666667,8.07192308 L0.711666667,6.73653846 L0.939166667,1.47846154 L0.939166667,1.47846154 C0.937869537,1.37189619 0.977686523,1.26909513 1.05,1.19230769 C1.09192753,1.15516383 1.14624213,1.13594941 1.20166667,1.13865385 C1.41166667,1.13865385 1.42916667,1.43673077 1.42916667,1.50230769 L1.5225,6.21788462 C1.4845266,6.54431227 1.63358273,6.86396925 1.9055872,7.0394308 C2.17759166,7.21489236 2.52407501,7.21489236 2.79607947,7.0394308 C3.06808393,6.86396925 3.21714007,6.54431227 3.17916667,6.21788462 L3.36583333,1.44865385 L3.36583333,1.44865385 C3.36694664,1.35473532 3.39993663,1.26412612 3.45916667,1.19230769 C3.49864437,1.15494784 3.55128009,1.13558252 3.605,1.13865385 C3.815,1.13865385 3.82666667,1.43673077 3.82666667,1.49634615 L3.82666667,1.49634615 L4.01333333,6.21192308 C3.97535993,6.53835073 4.12441607,6.85800771 4.39642053,7.03346927 C4.66842499,7.20893082 5.01490834,7.20893082 5.2869128,7.03346927 C5.55891727,6.85800771 5.7079734,6.53835073 5.67,6.21192308 L5.76333333,1.49038462 C5.76333333,1.43076923 5.76333333,1.13865385 5.985,1.13269231 C6.03892253,1.12813168 6.09212836,1.14770675 6.13083333,1.18634615 C6.19329292,1.26525604 6.22451642,1.36523986 6.21833333,1.46653846 L6.2475,1.46653846 L6.46333333,6.72461538 L6.46333333,8.06 C6.45921299,9.2967703 5.68888797,10.395099 4.54416667,10.7963462 Z" id="Shape"></path>
                </g>
            </g>
        </g>
    </g>
</svg>