<?xml version="1.0" encoding="utf-8"?>
<!-- Generator: Adobe Illustrator 23.0.6, SVG Export Plug-In . SVG Version: 6.00 Build 0)  -->
<svg version="1.1" id="Layer_1" xmlns="http://www.w3.org/2000/svg" xmlns:xlink="http://www.w3.org/1999/xlink" x="0px" y="0px"
	 viewBox="0 0 13 17" style="enable-background:new 0 0 13 17;" xml:space="preserve">
<style type="text/css">
	.st0{fill:#51D289;}
</style>
<title>J</title>
<desc>Created with Sketch.</desc>
<path class="st0" d="M12.1,1.9c-0.3-0.2-0.6-0.4-0.9-0.5c-0.3-0.1-0.7-0.3-1-0.3C9.8,0.9,9.5,0.9,9.3,0.9l-0.6,0l0.1,0.6
	C8.9,1.9,8.9,2.4,8.9,3c0,0.6-0.1,1.3-0.2,2C8.5,5.7,8.4,6.4,8.2,7.1C8,7.8,7.7,8.6,7.5,9.2C7.2,9.9,7,10.5,6.7,11.1
	c-0.3,0.6-0.6,1.1-0.9,1.5C5.5,13,5.2,13.3,5,13.4c-0.2,0.1-0.3,0.1-0.4,0.1c-0.1-0.1-0.1-0.2-0.2-0.3c-0.1-0.2-0.1-0.5-0.1-0.8
	c0-0.3,0-0.6,0.1-0.9c0.1-0.3,0.1-0.7,0.2-1c0.1-0.3,0.2-0.6,0.3-0.8C4.9,9.6,5,9.5,5.2,9.4l0.6-0.5L5.1,8.5
	C4.9,8.4,4.7,8.3,4.4,8.2C4,8.1,3.7,8,3.4,7.9c-0.4-0.1-0.7-0.1-1,0c-0.4,0-0.7,0.2-1,0.5L1.3,8.4C0.9,8.9,0.7,9.4,0.5,9.8
	c-0.2,0.5-0.2,1-0.2,1.5c0,0.6,0.1,1.2,0.3,1.8c0.2,0.6,0.6,1.1,1,1.6c0.4,0.5,0.9,0.8,1.5,1.1c0.6,0.3,1.3,0.4,2,0.4
	c0,0,0.1,0,0.1,0c0.6,0,1.2-0.1,1.8-0.4c0.5-0.3,1.1-0.7,1.5-1.2c0.5-0.5,0.9-1,1.2-1.7c0.4-0.6,0.7-1.3,1-2
	c0.3-0.7,0.6-1.4,0.8-2.2c0.2-0.7,0.4-1.5,0.6-2.2c0.2-0.7,0.3-1.4,0.4-2c0.1-0.6,0.2-1.2,0.2-1.7C12.7,2.5,12.5,2.2,12.1,1.9z"/>
</svg>
