<?xml version="1.0" encoding="utf-8"?>
<!-- Generator: Adobe Illustrator 23.0.6, SVG Export Plug-In . SVG Version: 6.00 Build 0)  -->
<svg version="1.1" id="Layer_1" xmlns="http://www.w3.org/2000/svg" xmlns:xlink="http://www.w3.org/1999/xlink" x="0px" y="0px"
	 viewBox="0 0 24 24" style="enable-background:new 0 0 24 24;" xml:space="preserve">
<style type="text/css">
	.st0{fill:none;}
	.st1{fill:url(#SVGID_1_);}
</style>
<path class="st0" d="M0,0h24v24H0V0z"/>
<linearGradient id="SVGID_1_" gradientUnits="userSpaceOnUse" x1="5.0681" y1="22.0681" x2="18.9319" y2="8.2043">
	<stop  offset="0" style="stop-color:#130CB7"/>
	<stop  offset="1" style="stop-color:#5EFCE8"/>
</linearGradient>
<path class="st1" d="M10,21c0,1.1,0.9,2,2,2s2-0.9,2-2H10z M18.9,16.8V11c0-3.2-2.2-6-5.3-6.7V3.6C13.6,2.7,12.9,2,12,2
	s-1.6,0.7-1.6,1.6v0.7C7.4,5,5.1,7.8,5.1,11v5.8L3,18.9V20h18v-1.1L18.9,16.8z M8,11"/>
</svg>
