<?xml version="1.0" encoding="UTF-8"?>
<svg width="19px" height="20px" viewBox="0 0 19 20" version="1.1" xmlns="http://www.w3.org/2000/svg" xmlns:xlink="http://www.w3.org/1999/xlink">
    <!-- Generator: Sketch 52.6 (67491) - http://www.bohemiancoding.com/sketch -->
    <title>Shape</title>
    <desc>Created with Sketch.</desc>
    <g id="Symbols" stroke="none" stroke-width="1" fill="none" fill-rule="evenodd">
        <g id="Profile-/-Info" transform="translate(-332.000000, -15.000000)" fill="#A2A1AC">
            <g id="Top">
                <path d="M350.736555,27.3822938 L349.036134,26.3923541 C349.207773,25.4587525 349.207773,24.501006 349.036134,23.5674044 L350.736555,22.5774648 C350.932143,22.4647887 351.019958,22.2313883 350.956092,22.0140845 C350.513025,20.5814889 349.758613,19.2857143 348.772689,18.2072435 C348.621008,18.0422535 348.373529,18.0020121 348.181933,18.1146881 L346.481513,19.1046278 C345.767017,18.4849095 344.944748,18.0060362 344.054622,17.6921529 L344.054622,15.7162978 C344.054622,15.4909457 343.89895,15.2937626 343.679412,15.2454728 C342.214496,14.915493 340.713655,14.9315895 339.320588,15.2454728 C339.10105,15.2937626 338.945378,15.4909457 338.945378,15.7162978 L338.945378,17.6961771 C338.059244,18.0140845 337.236975,18.4929577 336.518487,19.1086519 L334.822059,18.1187123 C334.626471,18.0060362 334.382983,18.0422535 334.231303,18.2112676 C333.245378,19.2857143 332.490966,20.5814889 332.047899,22.0181087 C331.980042,22.2354125 332.071849,22.4688129 332.267437,22.5814889 L333.967857,23.5714286 C333.796218,24.5050302 333.796218,25.4627767 333.967857,26.3963783 L332.267437,27.3863179 C332.071849,27.498994 331.984034,27.7323944 332.047899,27.9496982 C332.490966,29.3822938 333.245378,30.6780684 334.231303,31.7565392 C334.382983,31.9215292 334.630462,31.9617706 334.822059,31.8490946 L336.522479,30.8591549 C337.236975,31.4788732 338.059244,31.9577465 338.94937,32.2716298 L338.94937,34.2515091 C338.94937,34.4768612 339.105042,34.6740443 339.32458,34.722334 C340.789496,35.0523139 342.290336,35.0362173 343.683403,34.722334 C343.902941,34.6740443 344.058613,34.4768612 344.058613,34.2515091 L344.058613,32.2716298 C344.944748,31.9537223 345.767017,31.4748491 346.485504,30.8591549 L348.185924,31.8490946 C348.381513,31.9617706 348.625,31.9255533 348.776681,31.7565392 C349.762605,30.6820926 350.517017,29.3863179 350.960084,27.9496982 C351.019958,27.7283702 350.932143,27.4949698 350.736555,27.3822938 Z M341.5,28.1991952 C339.739706,28.1991952 338.306723,26.7545272 338.306723,24.9798793 C338.306723,23.2052314 339.739706,21.7605634 341.5,21.7605634 C343.260294,21.7605634 344.693277,23.2052314 344.693277,24.9798793 C344.693277,26.7545272 343.260294,28.1991952 341.5,28.1991952 Z" id="Shape"></path>
            </g>
        </g>
    </g>
</svg>